<?xml version="1.0" standalone="no"?>
<!DOCTYPE svg PUBLIC "-//W3C//DTD SVG 20010904//EN" "http://www.w3.org/TR/2001/REC-SVG-20010904/DTD/svg10.dtd">
<svg version="1.0" xmlns="http://www.w3.org/2000/svg" viewBox="0 0 154.000000 99.000000">

  <g transform="translate(0.000000,99.000000) scale(0.100000,-0.100000)" fill="#000000" stroke="none">
    <path d="M158 966 c-84 -8 -122 -16 -134 -28 -27 -26 -29 -98 -5 -176 36 -121
64 -141 271 -197 204 -56 187 -42 227 -189 32 -116 63 -176 119 -233 109 -109
330 -161 499 -118 154 39 290 147 358 284 50 100 47 116 -10 54 -128 -136
-254 -154 -382 -53 -67 53 -89 95 -158 295 -87 254 -141 322 -288 360 -70 18
-314 19 -497 1z m430 -70 c82 -42 72 -166 -16 -203 -75 -31 -152 22 -152 107
0 34 6 48 34 76 38 38 85 45 134 20z" />
    <path d="M496 839 c-30 -23 -33 -45 -10 -77 30 -43 104 -17 104 36 0 25 -33
62 -54 62 -7 0 -25 -9 -40 -21z" />
  </g>
</svg>